<?xml version="1.0" encoding="UTF-8"?>
<!DOCTYPE svg PUBLIC "-//W3C//DTD SVG 1.1//EN" "http://www.w3.org/Graphics/SVG/1.1/DTD/svg11.dtd">
<svg xmlns="http://www.w3.org/2000/svg" version="1.1" width="512px" height="512px" style="shape-rendering:geometricPrecision; text-rendering:geometricPrecision; image-rendering:optimizeQuality; fill-rule:evenodd; clip-rule:evenodd" xmlns:xlink="http://www.w3.org/1999/xlink">
<g><path style="opacity:0.963" fill="#000000" d="M 253.5,150.5 C 257.769,150.734 261.769,151.901 265.5,154C 325.333,213.833 385.167,273.667 445,333.5C 451.189,347.789 446.689,356.789 431.5,360.5C 427.946,359.945 424.613,358.779 421.5,357C 366.32,301.653 310.986,246.486 255.5,191.5C 200.014,246.486 144.68,301.653 89.5,357C 75.2227,363.195 66.2227,358.695 62.5,343.5C 63.1058,339.972 64.2725,336.639 66,333.5C 125.833,273.667 185.667,213.833 245.5,154C 248.158,152.522 250.825,151.355 253.5,150.5 Z"/></g>
</svg>
